<svg height="300" viewBox="0 0 400 720" width="300" xmlns="http://www.w3.org/2000/svg">
    <path d="m5.818 361.818v342.182h24.727 24.728v-4.62c0-4.748-.101-4.512 4.815-11.242.829-1.134 1.428-4.087 1.846-9.091 1.776-21.288 2.673-26.292 4.816-26.852 1.006-.264 1.531-1.968 2.514-8.163 1.569-9.889 2.816-12.183 7.014-12.899 1.717-.294 5.302-1.771 7.967-3.284 7.205-4.09 8.396-4.498 15.649-5.363 22.466-2.68 24.62-4.743 21.197-20.304-1.325-6.022-1.345-5.749.387-5.296 3.136.82 5.953-4 3.617-6.187-.731-.684-1.629-2.39-1.994-3.79-.631-2.413-.833-2.548-3.883-2.597-5.75-.093-5.369.466-6.902-10.116-1.443-9.958-3.034-53.224-1.995-54.262.831-.832 15.056 7.739 35.231 21.225 23.447 15.674 50.296 19.954 66.812 10.65 5.58-3.144 13.14-8.341 14.301-9.832 1.078-1.385.828-1.588 5.548 4.496 1.588 2.047 2.539 2.615 4.363 2.607 3.23-.016 4.978-1.197 3.265-2.208-.92-.542-1.136-1.306-.818-2.895.37-1.852.212-2.159-1.114-2.159-1.839 0-1.956-1.246-.454-4.839.6-1.436 1.09-3.219 1.09-3.962 0-1.672 4.865-4.29 7.971-4.29 1.843 0 2.211.288 2.211 1.729 0 .951.45 2.103 1 2.559.688.571.887 1.835.638 4.044-2.479 21.993 40.424 27.231 43.921 5.362.526-3.29.782-3.327 6.805-.966 7.574 2.968 9.065 2.375 4.67-1.858-4.602-4.432-13.305-19.491-16.752-28.989-.932-2.566-2.521-5.53-3.533-6.586-3.487-3.639-2.337-5.077 9.069-11.335 22.609-12.404 51.292-37.132 52.177-44.981 1.276-11.323-24.994-73.265-42.274-99.678-8.236-12.588-8.42-13.559-3.195-16.857 18.611-11.749 13.86-43.09-8.162-53.843-12.454-6.081-31.775-3.655-39.273 4.931-2.281 2.612-3.03 2.982-7.206 3.562-4.785.664-5.854 1.407-5.874 4.081-.02 2.764-5.295 12.178-8.771 15.655-5.012 5.012-5.252 8.836-.743 11.865 6.839 4.595 15.754 27.305 10.719 27.305-5.648 0-23.189-11.597-33.579-22.2-22.773-23.24-25.856-26.754-29.811-33.981-4.95-9.047-8.979-14.67-17.718-24.723-31.354-36.073-42.114-52.927-38.078-59.643.781-1.299 1.641-3.297 1.911-4.441s2.124-3.806 4.12-5.917c4.785-5.059 4.92-5.693 5.826-27.277.895-21.33.558-27.754-1.906-36.363-2.129-7.438-3.239-16.617-3.247-26.85-.004-4.167-.364-9.628-.8-12.136-.928-5.327.932-14.141 5.582-26.45 3.2-8.473 9.757-38.165 9.757-44.182 0-.745-13.573-.928-69.091-.928h-69.091zm108.255-125.273c1.565 2.1 8.17 12.655 14.676 23.455 13.609 22.592 15.306 25.156 22.862 34.545 3.057 3.8 9.522 12.8 14.364 20 14.666 21.805 22.531 31.793 35.27 44.79l11.822 12.061-5.196 6.848c-9.127 12.025-10.44 18.392-5.927 28.724 3.168 7.252 3.332 9.34 1.78 22.707-1.833 15.79-.963 15.727-11.367.824-14.111-20.213-26.314-31.984-37.554-36.225-4.159-1.569-26.248 16.469-31.504 25.726-5.351 9.426-9.788 15.406-21.481 28.95l-5.454 6.319-4.8.002c-2.639.001-7.262-.206-10.271-.461l-5.473-.462-.475-5.901c-.539-6.699.244-11.834 2.781-18.231.959-2.419 2.571-8.839 3.582-14.268s2.857-12.792 4.104-16.364c1.322-3.788 2.115-7.282 1.903-8.387-.204-1.062.11-2.571.714-3.434.954-1.361.951-1.982-.027-5.378-.609-2.112-1.769-9.73-2.58-16.93-.81-7.2-2.288-17.555-3.284-23.011-2.659-14.568-2.607-15.26 2.636-34.783 4.18-15.563 3.735-19.575-2.388-21.518-1.448-.46-1.448-.47-.025-1.466.895-.628 1.621-2.267 1.938-4.376.37-2.467 1.174-4.04 2.994-5.861 1.369-1.369 2.489-2.902 2.489-3.407 0-.506 1.45-3.127 3.222-5.825 2.612-3.978 3.151-5.347 2.847-7.239-.309-1.921.28-3.335 3.337-8.013 2.042-3.124 5.019-8.278 6.616-11.454 3.433-6.83 4.11-6.998 7.869-1.957m200.109 202.029c0 2.496-22.861 32.195-30.008 38.984-13.97 13.27-21.506 13.365-20.642.26.846-12.825 10.272-30.426 33.549-62.647l2.899-4.013 7.101 13.458c3.905 7.402 7.101 13.683 7.101 13.958m-164.953 17.181c5.851 12.487 4.175 16.253-5.146 11.56-2.825-1.423-5.964-2.588-6.974-2.588-3.006 0-.972-4.719 3.899-9.043.871-.773 2.255-2.492 3.075-3.818 1.964-3.179 1.762-3.332 5.146 3.889m-76.18 78.245c.152.5 1.918 5.982 3.925 12.182 6.896 21.306 9.872 36.239 7.127 35.767-.745-.127-2.126.493-3.07 1.38-2.233 2.098-3.363 1.208-5.409-4.26-3.54-9.464-6.94-43.145-4.592-45.493.767-.767 1.718-.567 2.019.424" fill-rule="evenodd"/></svg>